<svg width="25" height="24" viewBox="0 0 25 24" fill="none" xmlns="http://www.w3.org/2000/svg">
<path d="M24 3.30873V17.1893C24 18.2933 23.103 19.3282 21.999 19.4662L21.6195 19.5123C19.1125 19.8458 15.2485 21.1222 13.0405 22.3412C12.7415 22.5137 12.247 22.5137 11.9365 22.3412L11.8905 22.3183C9.68247 21.1108 5.83003 19.8458 3.33453 19.5123L3.00099 19.4662C1.89699 19.3282 1 18.2933 1 17.1893V3.29722C1 1.92872 2.11547 0.89373 3.48397 1.00873C5.89897 1.20423 9.55597 2.42326 11.603 3.69977L11.8905 3.87222C12.224 4.07923 12.776 4.07923 13.1095 3.87222L13.305 3.74574C14.0295 3.29724 14.9495 2.84873 15.95 2.44623V7.13825L18.25 5.60873L20.55 7.13825V1.13529C20.8605 1.07779 21.1595 1.04324 21.4355 1.02024H21.5045C22.873 0.905241 24 1.92873 24 3.30873Z" stroke="#292D32" stroke-width="2" stroke-linecap="round" stroke-linejoin="round"/>
<path d="M12.5 4.25208V21.5021" stroke="#292D32" stroke-width="2" stroke-linecap="round" stroke-linejoin="round"/>
<path d="M20.5512 1.13562V7.13858L18.2512 5.60906L15.9512 7.13858V2.44656C17.4577 1.84856 19.1367 1.36562 20.5512 1.13562Z" stroke="#292D32" stroke-width="2" stroke-linecap="round" stroke-linejoin="round"/>
</svg>
